<?xml version="1.0" encoding="utf-8"?>
<svg version="1.1" id="Layer_1" xmlns="http://www.w3.org/2000/svg" xmlns:xlink="http://www.w3.org/1999/xlink" x="0px" y="0px"
	 viewBox="0 0 505.7 8187" style="enable-background:new 0 0 505.7 8187;" xml:space="preserve">
<style type="text/css">
	.st0{fill:#431782;}
</style>
<g>
	<g>
		<path class="st0" d="M488.2,7.2c0.3,0.2,0.5,0.4,0.8,0.6c1.3,1,2.5,2,3.7,3c-1.2-1.1-2.4-2.1-3.7-3C488.6,7.5,488.4,7.4,488.2,7.2
			z"/>
		<path class="st0" d="M505.7,39.1c-0.5-11.2-5.4-21.2-13-28.3c-1.2-1.1-2.4-2.1-3.7-3c-0.3-0.2-0.5-0.4-0.8-0.6
			c-0.1-0.1-0.1-0.1-0.2-0.1c-0.1,0-0.1-0.1-0.2-0.1c-6.9-4.7-15.3-7.2-24.2-6.9L0,18.9V8187h505.7V39.1z"/>
		<path class="st0" d="M487.8,7c0.1,0,0.1,0.1,0.2,0.1l0,0l0,0C487.9,7,487.9,7,487.8,7c-6.9-4.7-15.3-7.3-24.2-7L0,18.8v0.1
			L463.6,0.1C472.6-0.2,481,2.4,487.8,7z"/>
		<path class="st0" d="M488,7.1c0.2,0.1,0.4,0.2,0.6,0.3l0,0C488.3,7.2,488.2,7.2,488,7.1L488,7.1z"/>
		<path class="st0" d="M488,7.1c0.1,0.1,0.1,0.1,0.2,0.1C488.1,7.2,488,7.1,488,7.1L488,7.1z"/>
		<path class="st0" d="M492.6,10.8c7.6,7.1,12.6,17,13,28.3V39C505.2,27.8,500.3,17.8,492.6,10.8z"/>
		<path class="st0" d="M488,7.1L488,7.1L488,7.1L488,7.1L488,7.1z"/>
	</g>
	<line class="st0" x1="0" y1="8187" x2="505.7" y2="8187"/>
</g>
</svg>
