<?xml version="1.0" encoding="utf-8"?>
<svg version="1.1" id="Layer_1" xmlns="http://www.w3.org/2000/svg" xmlns:xlink="http://www.w3.org/1999/xlink" x="0px" y="0px"
	 viewBox="0 0 461.1 8190.4" style="enable-background:new 0 0 461.1 8190.4;" xml:space="preserve">
<style type="text/css">
	.st0{fill:#FFFFFF;}
	.st1{opacity:0.85;fill:#005C99;}
</style>
<g id="Group_1014">
	<g id="Group_1013">
		<g>
			<g id="Group_1012">
				<path id="Path_432" class="st0" d="M449.3,8190.4V51.3c0-17.8-14-32.3-31.8-33L33.4,3.8C21.3,3.4,9.9,9.8,4,20.4
					c0,0.1-0.1,0.1-0.1,0.2c-0.5,0.9-1,1.8-1.4,2.7c-0.2,0.5-0.4,0.9-0.6,1.4c-1.3,3.5-2,7.1-2,10.8v-6.1C0,16.7,11,0,31.7,0
					l386.2,6.8c24,0.4,43.1,20,43.1,44v8139.6L449.3,8190.4z"/>
				<path id="Path_433" class="st1" d="M0,8190.4h449.3V51.3c0-17.8-14-32.3-31.8-33L33.4,3.8C14.7,3.4,0,17.7,0,36L0,8190.4z"/>
			</g>
		</g>
	</g>
</g>
</svg>
