<?xml version="1.0" encoding="utf-8"?>
<!-- Generator: Adobe Illustrator 27.5.0, SVG Export Plug-In . SVG Version: 6.00 Build 0)  -->
<svg version="1.1" id="Layer_1" xmlns="http://www.w3.org/2000/svg" xmlns:xlink="http://www.w3.org/1999/xlink" x="0px" y="0px"
	 viewBox="0 0 150 8193" style="enable-background:new 0 0 150 8193;" xml:space="preserve">
<style type="text/css">
	.st0{fill:#005C97;}
	.st1{fill:#FFFFFF;}
	.st2{fill:#FCA4AB;}
	.st3{fill:#0FC3ED;}
</style>
<g>
	<path class="st0" d="M144.7,44c-0.5-11.2-5.4-21.2-13-28.3c-1.2-1-2.4-2-3.7-3c-0.4-0.2-0.6-0.4-0.8-0.6c0,0,0,0-0.1,0
		c-0.1,0-0.2,0-0.2-0.1c0,0-0.1,0-0.1,0c0,0,0,0.1,0.1,0.1c-0.1,0-0.1-0.1-0.2-0.1c-3.9-2.6-8.2-4.6-12.9-5.8
		c-3.6-0.9-7.4-1.3-11.3-1.1L0,9.3V8192h144.7V44z M144.6,44.1c-0.4-11.3-5.4-21.2-13-28.3c7.7,7,12.6,16.9,13,28.2V44.1z"/>
	<polygon class="st1" points="0,8192 0,8193 150,8193 150,8192 144.7,8192 	"/>
	<path class="st1" d="M120.8,8.6c-5.5-2.5-11.7-3.9-18.2-3.6C109.1,4.8,115.3,6.1,120.8,8.6z"/>
	<path class="st1" d="M127.2,12.1c0,0,0.1,0,0.1,0l0,0C127.3,12.1,127.2,12.1,127.2,12.1C127.2,12.1,127.2,12.1,127.2,12.1
		C127.2,12.1,127.2,12.1,127.2,12.1z"/>
	<path class="st1" d="M144.7,44v-0.1c-0.4-11.2-5.4-21.1-13-28.2C139.3,22.8,144.2,32.8,144.7,44z"/>
	<path class="st2" d="M102.6,5C102.6,5,102.6,5,102.6,5c6.5-0.3,12.7,1.1,18.2,3.6c2.1,0.9,4.1,2.1,6,3.3c0.1,0,0.1,0.1,0.2,0.1
		c0.1,0,0.1,0,0.2,0.1c0.1,0,0.1,0.1,0.1,0.1c0.1,0,0.1,0,0.2,0C119.8,4.3,109-0.4,97.2,0L0,4v5.2L102.6,5z"/>
	<path class="st0" d="M127.2,12.1C127.2,12.1,127.2,12.1,127.2,12.1c-0.1-0.1-0.1-0.1-0.2-0.1C127.1,12.1,127.1,12.1,127.2,12.1
		L127.2,12.1z"/>
	<path class="st0" d="M126.9,12C126.9,12,126.8,12,126.9,12c-1.9-1.3-3.9-2.4-6-3.4c-5.6-2.5-11.8-3.8-18.2-3.6c0,0,0,0,0,0
		c3.9-0.1,7.7,0.3,11.3,1.2C118.6,7.4,123,9.4,126.9,12C126.8,12,126.9,12,126.9,12z"/>
	<path class="st0" d="M128,12.7c-0.3-0.2-0.5-0.4-0.7-0.5c0,0,0,0,0,0C127.4,12.3,127.6,12.5,128,12.7z"/>
	<polygon class="st0" points="102.6,5 102.6,5 102.6,5 	"/>
	<path class="st0" d="M127,12c0.1,0,0.1,0,0.2,0.1C127.1,12,127.1,12,127,12z"/>
	<path class="st0" d="M120.8,8.6c2.1,1,4.1,2.1,6,3.3C124.9,10.6,122.9,9.5,120.8,8.6z"/>
	<path class="st0" d="M126.9,12C126.9,12,126.9,12,126.9,12c0.1,0,0.1,0,0.1,0C126.9,12,126.9,11.9,126.9,12
		C126.8,12,126.9,12,126.9,12z"/>
	<path class="st0" d="M102.6,5L102.6,5L0,9.2v0.1l102.6-4.2c3.9-0.2,7.7,0.2,11.3,1.1C110.3,5.3,106.5,4.9,102.6,5z"/>
	<path class="st0" d="M126.8,12c-3.8-2.7-8.2-4.6-12.9-5.8C118.6,7.4,122.9,9.4,126.8,12z"/>
	<path class="st0" d="M126.8,12c0.1,0,0.1,0.1,0.2,0.1c0,0-0.1-0.1-0.1-0.1C126.9,12,126.9,12,126.8,12C126.9,12,126.8,12,126.8,12z
		"/>
	<polygon class="st0" points="102.6,5 102.6,5 0,9.2 0,9.2 102.6,5 	"/>
	<path class="st0" d="M126.9,12C126.9,12,126.9,12,126.9,12C126.9,12,126.9,12,126.9,12z"/>
	<path class="st3" d="M127.5,12.2C127.5,12.2,127.5,12.2,127.5,12.2c0,0,0.1,0.1,0.1,0.1c-0.1,0-0.2-0.1-0.3-0.1
		c0.3,0.2,0.5,0.4,0.7,0.5c1.3,0.9,2.5,1.9,3.7,3c7.6,7.1,12.6,17,13,28.2V44v8148h5.3V44C149.4,28.7,140.4,18.7,127.5,12.2z"/>
	<polygon class="st3" points="127.3,12.2 127.3,12.2 127.3,12.2 	"/>
	<path class="st3" d="M127.3,12.2c0.1,0.1,0.2,0.1,0.3,0.1c0,0-0.1-0.1-0.1-0.1C127.4,12.2,127.4,12.2,127.3,12.2L127.3,12.2z"/>
	<polygon class="st3" points="127.2,12.1 127.2,12.1 127.2,12.1 	"/>
	<path class="st3" d="M127,12c0.1,0.1,0.1,0.1,0.2,0.1C127.1,12.1,127.1,12.1,127,12z"/>
	<path class="st3" d="M128,12.7c1.3,1,2.5,2,3.7,3C130.5,14.6,129.3,13.6,128,12.7z"/>
	<polygon class="st3" points="127.2,12.1 127.2,12.1 127.2,12.1 	"/>
	<path class="st3" d="M127.3,12.2C127.3,12.2,127.3,12.2,127.3,12.2C127.3,12.2,127.2,12.1,127.3,12.2
		C127.2,12.1,127.2,12.1,127.3,12.2z"/>
	<path class="st3" d="M127.2,12.1C127.2,12.1,127.2,12.1,127.2,12.1C127.2,12.1,127.2,12.1,127.2,12.1
		C127.2,12.2,127.2,12.1,127.2,12.1C127.2,12.1,127.2,12.1,127.2,12.1z"/>
	<path class="st3" d="M127.2,12.1c-0.1,0-0.1-0.1-0.2-0.1C127.1,12.1,127.1,12.1,127.2,12.1C127.2,12.1,127.2,12.1,127.2,12.1z"/>
	<path class="st3" d="M127.2,12.1C127.2,12.1,127.2,12.2,127.2,12.1C127.2,12.2,127.3,12.2,127.2,12.1
		C127.3,12.2,127.3,12.2,127.2,12.1C127.2,12.2,127.2,12.2,127.2,12.1z"/>
	<path class="st3" d="M127.3,12.2C127.3,12.2,127.3,12.2,127.3,12.2C127.3,12.2,127.3,12.2,127.3,12.2c0.1,0.1,0.2,0.1,0.3,0.1
		C127.5,12.3,127.4,12.2,127.3,12.2L127.3,12.2z"/>
	<path class="st3" d="M127.6,12.3c-0.1,0-0.2-0.1-0.3-0.1C127.4,12.2,127.5,12.3,127.6,12.3z"/>
	<path class="st3" d="M127.2,12.1c-0.1,0-0.1-0.1-0.2-0.1C127.1,12.1,127.1,12.1,127.2,12.1C127.2,12.1,127.2,12.1,127.2,12.1z"/>
	<path class="st3" d="M127.2,12.1C127.2,12.1,127.2,12.1,127.2,12.1C127.2,12.1,127.2,12.1,127.2,12.1
		C127.2,12.1,127.2,12.1,127.2,12.1C127.2,12.1,127.2,12.1,127.2,12.1z"/>
	<path class="st3" d="M127.2,12.1C127.2,12.1,127.2,12.1,127.2,12.1C127.2,12.2,127.2,12.2,127.2,12.1
		C127.2,12.1,127.2,12.1,127.2,12.1L127.2,12.1z"/>
	<path class="st3" d="M127,12c0,0.1,0.1,0.1,0.2,0.1c0,0,0,0,0,0C127.1,12.1,127.1,12.1,127,12z"/>
	<polygon class="st3" points="127.2,12.1 127.2,12.1 127.2,12.1 	"/>
	<polygon class="st3" points="127.2,12.1 127.2,12.1 127.2,12.1 127.2,12.1 	"/>
	<path class="st3" d="M127.2,12.1C127.2,12.1,127.2,12.1,127.2,12.1C127.2,12.1,127.2,12.1,127.2,12.1
		C127.2,12.1,127.2,12.1,127.2,12.1L127.2,12.1z"/>
	<path class="st3" d="M131.6,15.8c7.6,7.1,12.6,17,13,28.3V44C144.2,32.7,139.3,22.8,131.6,15.8z"/>
</g>
</svg>
