<?xml version="1.0" encoding="utf-8"?>
<svg version="1.1" id="Layer_1" xmlns="http://www.w3.org/2000/svg" xmlns:xlink="http://www.w3.org/1999/xlink" x="0px" y="0px"
	 viewBox="0 0 625 260" style="enable-background:new 0 0 625 260;" xml:space="preserve">
<style type="text/css">
	.st0{opacity:0.85;fill:#005C97;}
	
		.st1{opacity:0.85;clip-path:url(#SVGID_00000003783989855669773480000011457177542913234055_);fill:#FFFFFF;enable-background:new    ;}
	.st2{clip-path:url(#SVGID_00000003806869509156815820000017471399123416720304_);fill:#043673;}
	.st3{clip-path:url(#SVGID_00000026165658611274186360000004462360329708555428_);fill:#043673;}
	.st4{clip-path:url(#SVGID_00000090979829916052553180000015212917963222553247_);fill:#043673;}
	.st5{clip-path:url(#SVGID_00000176723822525938198450000006058506784825789852_);fill:#043673;}
	.st6{clip-path:url(#SVGID_00000142169488639711157230000010028435394387840145_);fill:#043673;}
	.st7{clip-path:url(#SVGID_00000163049059742298060860000006162969360451170464_);fill:#043673;}
	.st8{clip-path:url(#SVGID_00000120546126779581407410000000471366721559823034_);fill:#043673;}
	.st9{clip-path:url(#SVGID_00000083047420803899863960000011342925987175125894_);fill:#043673;}
	.st10{clip-path:url(#SVGID_00000090290255070299856430000003420129969092682632_);fill:#FDB913;}
	.st11{clip-path:url(#SVGID_00000020394857311491048380000010659523817632137626_);fill:#FDB913;}
</style>
<path id="Path_272" class="st0" d="M0,262.9L0.1,85.2l541.7-22c44.3-1.7,81.5,33.1,83.2,77.5v122.5L0,262.9z"/>
<g>
	<g>
		<g>
			<g>
				<defs>
					<polygon id="SVGID_1_" points="1.4,-4.2 214.1,-4.2 214.4,76.2 1,84.9 					"/>
				</defs>
				<clipPath id="SVGID_00000150808028304284873580000007017871456905376941_">
					<use xlink:href="#SVGID_1_"  style="overflow:visible;"/>
				</clipPath>
				
					<path id="Path_267_00000162354112623513898510000011938090721345914787_" style="opacity:0.85;clip-path:url(#SVGID_00000150808028304284873580000007017871456905376941_);fill:#FFFFFF;enable-background:new    ;" d="
					M213.8,79L1.5,85.5V32.9c0-15.8,12.8-28.6,28.6-28.6c0.4,0,0.7,0,1.1,0l156.7,6.1c14.5,0.6,25.9,12.4,26,26.9L213.8,79z"/>
			</g>
		</g>
	</g>
</g>
<g>
	<g>
		<g>
			<g>
				<defs>
					<rect id="SVGID_00000138567496541787436190000018202112274136407687_" x="18.5" y="31.6" width="182.1" height="49.2"/>
				</defs>
				<clipPath id="SVGID_00000161592517326470741630000016223874742809773701_">
					<use xlink:href="#SVGID_00000138567496541787436190000018202112274136407687_"  style="overflow:visible;"/>
				</clipPath>
				
					<path id="Path_41_00000097473840249310047300000018376941166513526690_" style="clip-path:url(#SVGID_00000161592517326470741630000016223874742809773701_);fill:#043673;" d="
					M34.7,50.3c0,2.2-0.8,4-2.4,5.3c-1.6,1.3-3.9,1.9-6.8,1.9c-2.8,0-5.1-0.5-7.1-1.4v-4.2c1.1,0.5,2.3,0.9,3.5,1.3
					c1.3,0.4,2.6,0.6,3.9,0.6c1.5,0,2.6-0.3,3.3-0.9c1.3-1.1,1.4-3,0.3-4.3c-0.2-0.2-0.4-0.4-0.6-0.5c-1.2-0.8-2.6-1.5-3.9-2
					c-1-0.4-2-1-3-1.6c-0.9-0.6-1.7-1.4-2.3-2.4c-0.6-1.1-1-2.3-0.9-3.6c0-2.1,0.8-3.8,2.3-5.1c1.5-1.2,3.6-1.8,6.1-1.8
					c1.3,0,2.5,0.1,3.8,0.4c1.2,0.3,2.4,0.7,3.5,1.2l-1.5,3.6c-1-0.4-2-0.8-3-1.1s-2-0.4-3-0.4c-1.2,0-2.2,0.3-2.8,0.8s-1,1.3-1,2.2
					c0,0.6,0.2,1.2,0.5,1.8c0.4,0.6,1,1,1.6,1.3c0.7,0.4,1.7,0.9,2.9,1.4s2.4,1.1,3.5,1.9c0.9,0.6,1.6,1.4,2.2,2.3
					C34.5,48,34.8,49.2,34.7,50.3"/>
			</g>
		</g>
	</g>
	<g>
		<g>
			<g>
				<defs>
					<rect id="SVGID_00000053515234184345829750000001485701796540408466_" x="18.5" y="31.6" width="182.1" height="49.2"/>
				</defs>
				<clipPath id="SVGID_00000135668602272016045630000016907509205422639499_">
					<use xlink:href="#SVGID_00000053515234184345829750000001485701796540408466_"  style="overflow:visible;"/>
				</clipPath>
				
					<path id="Path_42_00000168100827496751016230000013486912375398133175_" style="clip-path:url(#SVGID_00000135668602272016045630000016907509205422639499_);fill:#043673;" d="
					M45.3,54c0.5,0,1.1-0.1,1.6-0.2c0.5-0.1,1-0.2,1.5-0.4v3.3c-0.6,0.3-1.2,0.5-1.8,0.6c-0.8,0.1-1.6,0.2-2.4,0.2c-1,0-2-0.2-3-0.5
					c-0.9-0.4-1.6-1-2.1-1.9s-0.8-2.2-0.8-3.8v-10h-2.6v-1.9l2.8-1.6l1.4-4.1h2.8v4.2h5.4v3.4h-5.4v9.9c-0.1,0.7,0.2,1.5,0.7,2
					C44,53.8,44.6,54,45.3,54"/>
			</g>
		</g>
	</g>
	<g>
		<g>
			<g>
				<defs>
					<rect id="SVGID_00000100341894631985294240000011640440199820124594_" x="18.5" y="31.6" width="182.1" height="49.2"/>
				</defs>
				<clipPath id="SVGID_00000138570699295478671750000002879976410500391589_">
					<use xlink:href="#SVGID_00000100341894631985294240000011640440199820124594_"  style="overflow:visible;"/>
				</clipPath>
				
					<path id="Path_43_00000004540858796444834750000009149841902127917727_" style="clip-path:url(#SVGID_00000138570699295478671750000002879976410500391589_);fill:#043673;" d="
					M61,37.7c0.3,0,0.6,0,1,0.1c0.4,0,0.7,0.1,0.9,0.1L62.5,42c-0.2,0-0.5-0.1-0.9-0.1c-0.3,0-0.6,0-0.9-0.1c-0.9,0-1.8,0.2-2.7,0.6
					c-0.8,0.4-1.5,1-2,1.8c-0.5,0.9-0.8,2-0.8,3.1v9.9H51V38.1h3.4l0.6,3.3h0.2c0.6-1,1.4-1.9,2.3-2.6C58.6,38.1,59.8,37.7,61,37.7"
					/>
			</g>
		</g>
	</g>
	<g>
		<g>
			<g>
				<defs>
					<rect id="SVGID_00000049916105473955707060000002210166261306998706_" x="18.5" y="31.6" width="182.1" height="49.2"/>
				</defs>
				<clipPath id="SVGID_00000122702443501827552720000009607699859290689682_">
					<use xlink:href="#SVGID_00000049916105473955707060000002210166261306998706_"  style="overflow:visible;"/>
				</clipPath>
				
					<path id="Path_44_00000122722833607104745240000018240441949240070817_" style="clip-path:url(#SVGID_00000122702443501827552720000009607699859290689682_);fill:#043673;" d="
					M81.7,47.6c0,3.2-0.8,5.6-2.5,7.4c-1.7,1.7-3.9,2.6-6.7,2.6c-1.6,0-3.2-0.4-4.7-1.2c-1.4-0.8-2.5-2-3.2-3.4
					c-0.8-1.7-1.2-3.5-1.2-5.4c0-3.2,0.8-5.6,2.5-7.3c1.6-1.7,3.9-2.6,6.7-2.6c1.6,0,3.3,0.4,4.7,1.1c1.4,0.8,2.5,1.9,3.2,3.4
					C81.3,43.9,81.7,45.7,81.7,47.6 M68,47.6c0,2,0.4,3.6,1.1,4.7c0.7,1.1,1.9,1.7,3.5,1.7s2.7-0.6,3.5-1.7s1.1-2.7,1.1-4.7
					s-0.4-3.6-1.1-4.7c-0.7-1.1-1.9-1.6-3.5-1.6s-2.8,0.5-3.5,1.6C68.3,44,68,45.6,68,47.6"/>
			</g>
		</g>
	</g>
	<g>
		<g>
			<g>
				<defs>
					<rect id="SVGID_00000176023747168306372620000009240269388378367406_" x="18.5" y="31.6" width="182.1" height="49.2"/>
				</defs>
				<clipPath id="SVGID_00000147916409446120441520000008746979747504703148_">
					<use xlink:href="#SVGID_00000176023747168306372620000009240269388378367406_"  style="overflow:visible;"/>
				</clipPath>
				
					<path id="Path_45_00000101083809818590650110000016336395330512391833_" style="clip-path:url(#SVGID_00000147916409446120441520000008746979747504703148_);fill:#043673;" d="
					M94.7,37.7c2.1,0,3.8,0.6,5,1.7c1.2,1.1,1.8,2.9,1.8,5.4v12.5H97V45.6c0-1.4-0.3-2.5-0.8-3.2c-0.6-0.7-1.5-1.1-2.7-1.1
					c-1.8,0-3,0.6-3.7,1.7c-0.7,1.1-1,2.7-1,4.8v9.4h-4.5V38.1h3.4l0.6,2.5h0.2c0.6-1,1.5-1.7,2.5-2.2
					C92.3,37.9,93.5,37.7,94.7,37.7"/>
			</g>
		</g>
	</g>
	<g>
		<g>
			<g>
				<defs>
					<rect id="SVGID_00000157282245527241467780000009218101481810864027_" x="18.5" y="31.6" width="182.1" height="49.2"/>
				</defs>
				<clipPath id="SVGID_00000025423266273448021970000015796541780080915614_">
					<use xlink:href="#SVGID_00000157282245527241467780000009218101481810864027_"  style="overflow:visible;"/>
				</clipPath>
				
					<path id="Path_46_00000042720184738379544320000001736698575475369344_" style="clip-path:url(#SVGID_00000025423266273448021970000015796541780080915614_);fill:#043673;" d="
					M111.7,37.7c2.5,0,4.4,0.9,5.7,2.8h0.2L118,38h3.7v19.3c0,2.7-0.8,4.8-2.3,6.2s-3.8,2.1-6.9,2.1c-1.3,0-2.5-0.1-3.8-0.3
					c-1.1-0.2-2.2-0.5-3.3-0.9v-3.7c1.1,0.5,2.3,0.8,3.5,1.1c1.3,0.3,2.6,0.4,3.9,0.4c1.4,0,2.5-0.4,3.3-1.2s1.2-2,1.2-3.6v-0.5
					c0-0.4,0-0.8,0-1.2s0-0.8,0.1-1.1h-0.1c-0.6,0.9-1.4,1.7-2.4,2.2s-2.1,0.7-3.2,0.7c-2.3,0-4.2-0.9-5.5-2.6c-1.3-1.7-2-4.2-2-7.3
					s0.7-5.6,2-7.3C107.4,38.6,109.3,37.7,111.7,37.7 M112.8,41.3c-2.8,0-4.2,2.1-4.2,6.4c0,4.2,1.4,6.3,4.2,6.3
					c1.6,0,2.7-0.4,3.4-1.3s1.1-2.3,1.1-4.4v-0.7c0-2.3-0.4-3.9-1.1-4.9C115.6,41.8,114.4,41.3,112.8,41.3"/>
			</g>
		</g>
	</g>
	<g>
		<g>
			<g>
				<defs>
					<rect id="SVGID_00000051348907987534644670000015882703459861534398_" x="18.5" y="31.6" width="182.1" height="49.2"/>
				</defs>
				<clipPath id="SVGID_00000082326988811716171700000017984780805923014043_">
					<use xlink:href="#SVGID_00000051348907987534644670000015882703459861534398_"  style="overflow:visible;"/>
				</clipPath>
				
					<path id="Path_47_00000147904082736354302860000008408788107899888297_" style="clip-path:url(#SVGID_00000082326988811716171700000017984780805923014043_);fill:#043673;" d="
					M133.2,37.7c2.6,0,4.6,0.8,6.1,2.3s2.2,3.7,2.2,6.4v2.3h-12.7c0,1.7,0.5,3.1,1.5,4c0.9,1,2.2,1.4,3.8,1.4c1.1,0,2.2-0.1,3.3-0.4
					c1-0.3,2.1-0.6,3-1.1v3.6c-0.9,0.4-1.9,0.8-2.9,1c-1.2,0.2-2.4,0.3-3.6,0.3c-1.7,0-3.4-0.3-5-1.1c-1.4-0.7-2.6-1.8-3.4-3.3
					c-0.8-1.4-1.2-3.3-1.2-5.5c0-3.3,0.8-5.8,2.4-7.5C128.4,38.6,130.5,37.7,133.2,37.7 M133.2,41c-1.1,0-2.2,0.4-2.9,1.1
					c-0.7,0.8-1.2,1.9-1.3,3.4h8.2c0-1.2-0.3-2.3-1-3.3C135.6,41.4,134.6,41,133.2,41"/>
			</g>
		</g>
	</g>
	<g>
		<g>
			<g>
				<defs>
					<rect id="SVGID_00000170272228393952999360000017706144637410552216_" x="18.5" y="31.6" width="182.1" height="49.2"/>
				</defs>
				<clipPath id="SVGID_00000017505764546235528450000001752985810565509250_">
					<use xlink:href="#SVGID_00000170272228393952999360000017706144637410552216_"  style="overflow:visible;"/>
				</clipPath>
				
					<path id="Path_48_00000054960794065789717850000017308718923700690073_" style="clip-path:url(#SVGID_00000017505764546235528450000001752985810565509250_);fill:#043673;" d="
					M154.6,37.7c0.3,0,0.6,0,1,0.1c0.4,0,0.7,0.1,0.9,0.1l-0.4,4.1c-0.2,0-0.5-0.1-0.9-0.1c-0.3,0-0.6,0-0.9-0.1
					c-0.9,0-1.8,0.2-2.7,0.6c-0.8,0.4-1.5,1-2,1.8c-0.5,0.9-0.8,2-0.8,3.1v9.9h-4.5V38.1h3.4l0.6,3.3h0.2c0.6-1,1.4-1.9,2.3-2.6
					C152.2,38.1,153.4,37.7,154.6,37.7"/>
			</g>
		</g>
	</g>
	<g>
		<g>
			<g>
				<defs>
					<rect id="SVGID_00000011728620326607440520000008044980945263264442_" x="18.5" y="31.6" width="182.1" height="49.2"/>
				</defs>
				<clipPath id="SVGID_00000036249971553902902540000009560094434167664564_">
					<use xlink:href="#SVGID_00000011728620326607440520000008044980945263264442_"  style="overflow:visible;"/>
				</clipPath>
				
					<path id="Path_49_00000174571170382559356940000000673263300213697934_" style="clip-path:url(#SVGID_00000036249971553902902540000009560094434167664564_);fill:#FDB913;" d="
					M158.7,32h8.8c3.6,0,6.2,0.5,7.8,1.6c1.5,1,2.4,2.8,2.4,4.7c0,1-0.2,1.9-0.6,2.8c-0.4,0.7-0.9,1.3-1.5,1.8
					c-0.6,0.4-1.2,0.7-1.9,0.9V44c0.7,0.2,1.4,0.5,2.1,0.9s1.3,1,1.7,1.8c0.5,1,0.7,2.1,0.7,3.2c0.1,2.1-0.9,4.1-2.6,5.4
					c-1.7,1.3-4.1,2-7,2h-9.8L158.7,32L158.7,32z M165.5,41.7h2.1c1.1,0,1.9-0.2,2.4-0.7c0.5-0.4,0.7-1.1,0.7-1.7
					c0-1.4-1.1-2.1-3.2-2.1h-1.9L165.5,41.7z M165.5,46.6V52h2.4c1.2,0,2-0.3,2.5-0.8s0.7-1.2,0.7-1.9s-0.2-1.3-0.7-1.8
					s-1.3-0.8-2.6-0.8L165.5,46.6z"/>
			</g>
		</g>
	</g>
	<g>
		<g>
			<g>
				<defs>
					<rect id="SVGID_00000059267948124822249060000008503223898101892519_" x="18.5" y="31.6" width="182.1" height="49.2"/>
				</defs>
				<clipPath id="SVGID_00000111914423849278479480000001827817431711106492_">
					<use xlink:href="#SVGID_00000059267948124822249060000008503223898101892519_"  style="overflow:visible;"/>
				</clipPath>
				
					<path id="Path_50_00000068639535000524402670000002377011757031014559_" style="clip-path:url(#SVGID_00000111914423849278479480000001827817431711106492_);fill:#FDB913;" d="
					M192,37.2c-1.5,0-3,0.7-3.8,2c-0.9,1.3-1.4,3.2-1.4,5.5c0,2.4,0.5,4.2,1.4,5.4s2.3,1.9,4.2,1.9c1.1,0,2.2-0.2,3.2-0.5
					c1.1-0.3,2.1-0.7,3.2-1.1v5.8c-1.1,0.5-2.2,0.9-3.4,1.1c-1.2,0.2-2.5,0.3-3.7,0.3c-2.8,0-5-0.5-6.7-1.6s-3.1-2.7-3.8-4.5
					c-0.9-2.1-1.3-4.4-1.2-6.7c0-2.3,0.4-4.6,1.4-6.8c0.9-1.9,2.3-3.5,4.2-4.6c1.8-1.1,4-1.7,6.7-1.7c1.3,0,2.6,0.2,3.9,0.4
					c1.4,0.3,2.7,0.7,4,1.3l-2.1,5.4c-0.9-0.4-1.8-0.8-2.8-1.1C194.1,37.3,193,37.2,192,37.2"/>
			</g>
		</g>
	</g>
</g>
</svg>
